#Comment line ignore any data following # character 
#Hierarchical Translation and Rotation (.htr) file 
[Header]	
#Header keywords are followed by a single value 
FileType HTR		#Single word string
DataType HTRS		#Translation followed by rotation and scale data
FileVersion 1		#integer
NumSegments 84		#integer
NumFrames 2		#integer
DataFrameRate 30		#integer, data frame rate in this file
EulerRotationOrder ZYX
CalibrationUnits mm
RotationUnits Degrees
GlobalAxisofGravity Y
BoneLengthAxis Y
ScaleFactor 1.00
[SegmentNames&Hierarchy]
#CHILD	PARENT
MASTER GLOBAL
root MASTER
chest root
L_mid_tent01 root
R_mid_tent01 root
spine01 root
Bip01_Neck chest
L_humerus chest
R_humerus chest
weapon_bone chest
Bip01_Head Bip01_Neck
eye_left_bone Bip01_Head
eye_right_bone Bip01_Head
L_forearm L_humerus
L_front_hand L_forearm
L_weapon_bone L_forearm
L_front_hand01_01 L_front_hand
L_front_hand02_01 L_front_hand
L_front_hand03_01 L_front_hand
L_front_hand01_02 L_front_hand01_01
L_front_hand02_02 L_front_hand02_01
L_front_hand03_02 L_front_hand03_01
R_forearm R_humerus
R_front_hand R_forearm
R_weapon_bone R_forearm
R_front_hand01_01 R_front_hand
R_front_hand02_01 R_front_hand
R_front_hand03_01 R_front_hand
R_front_hand01_02 R_front_hand01_01
R_front_hand02_02 R_front_hand02_01
R_front_hand03_02 R_front_hand03_01
null_rope01_connect L_mid_tent01
Rope1_Seg01 null_rope01_connect
Rope1_Seg02 Rope1_Seg01
Rope1_Seg03 Rope1_Seg02
Rope1_Seg04 Rope1_Seg03
Rope1_Seg05 Rope1_Seg04
Rope1_Seg06 Rope1_Seg05
Rope1_Seg07 Rope1_Seg06
Rope1_Seg09 Rope1_Seg07
L_mid_hand01 Rope1_Seg09
L_mid_hand02 Rope1_Seg09
L_mid_hand03 Rope1_Seg09
null_rope02_connect R_mid_tent01
Rope2_Seg01 null_rope02_connect
Rope2_Seg02 Rope2_Seg01
Rope2_Seg03 Rope2_Seg02
Rope2_Seg04 Rope2_Seg03
Rope2_Seg05 Rope2_Seg04
Rope2_Seg06 Rope2_Seg05
Rope2_Seg07 Rope2_Seg06
Rope2_Seg09 Rope2_Seg07
R_mid_hand01 Rope2_Seg09
R_mid_hand02 Rope2_Seg09
R_mid_hand03 Rope2_Seg09
spine02 spine01
spine03 spine02
pelvis spine03
null_rope03_connect pelvis
null_rope04_connect pelvis
Rope3_Seg01 null_rope03_connect
Rope3_Seg02 Rope3_Seg01
Rope3_Seg03 Rope3_Seg02
Rope3_Seg04 Rope3_Seg03
Rope3_Seg05 Rope3_Seg04
Rope3_Seg06 Rope3_Seg05
Rope3_Seg07 Rope3_Seg06
Rope3_Seg08 Rope3_Seg07
Rope3_Seg09 Rope3_Seg08
R_rear_hand01 Rope3_Seg09
R_rear_hand02 Rope3_Seg09
R_rear_hand03 Rope3_Seg09
Rope4_Seg01 null_rope04_connect
Rope4_Seg02 Rope4_Seg01
Rope4_Seg03 Rope4_Seg02
Rope4_Seg04 Rope4_Seg03
Rope4_Seg05 Rope4_Seg04
Rope4_Seg06 Rope4_Seg05
Rope4_Seg07 Rope4_Seg06
Rope4_Seg08 Rope4_Seg07
Rope4_Seg09 Rope4_Seg08
L_rear_hand01 Rope4_Seg09
L_rear_hand02 Rope4_Seg09
L_rear_hand03 Rope4_Seg09
[BasePosition]
#SegmentName Tx, Ty, Tz, Rx, Ry, Rz, BoneLength
MASTER 0.000000 0.000000 0.000000 -90.000000 0.000000 0.000000 10.000000 
root 0.000000 0.000000 0.000000 0.000000 0.000000 0.000000 10.000000 
chest 0.000000 0.000000 0.000000 0.000000 0.000000 0.000000 10.000000 
L_mid_tent01 0.000000 0.000000 0.000000 0.000000 0.000000 0.000000 10.000000 
R_mid_tent01 0.000000 0.000000 0.000000 0.000000 0.000000 0.000000 10.000000 
spine01 0.000000 0.000000 0.000000 0.000000 0.000000 0.000000 10.000000 
Bip01_Neck 0.000000 0.000000 0.000000 0.000000 0.000000 0.000000 10.000000 
L_humerus 0.000000 0.000000 0.000000 0.000000 0.000000 0.000000 10.000000 
R_humerus 0.000000 0.000000 0.000000 0.000000 0.000000 0.000000 10.000000 
weapon_bone 0.000000 0.000000 0.000000 0.000000 0.000000 0.000000 10.000000 
Bip01_Head 0.000000 0.000000 0.000000 0.000000 0.000000 0.000000 10.000000 
eye_left_bone 0.000000 0.000000 0.000000 0.000000 0.000000 0.000000 10.000000 
eye_right_bone 0.000000 0.000000 0.000000 0.000000 0.000000 0.000000 10.000000 
L_forearm 0.000000 0.000000 0.000000 0.000000 0.000000 0.000000 10.000000 
L_front_hand 0.000000 0.000000 0.000000 0.000000 0.000000 0.000000 10.000000 
L_weapon_bone 0.000000 0.000000 0.000000 0.000000 0.000000 0.000000 10.000000 
L_front_hand01_01 0.000000 0.000000 0.000000 0.000000 0.000000 0.000000 10.000000 
L_front_hand02_01 0.000000 0.000000 0.000000 0.000000 0.000000 0.000000 10.000000 
L_front_hand03_01 0.000000 0.000000 0.000000 0.000000 0.000000 0.000000 10.000000 
L_front_hand01_02 0.000000 0.000000 0.000000 0.000000 0.000000 0.000000 10.000000 
L_front_hand02_02 0.000000 0.000000 0.000000 0.000000 0.000000 0.000000 10.000000 
L_front_hand03_02 0.000000 0.000000 0.000000 0.000000 0.000000 0.000000 10.000000 
R_forearm 0.000000 0.000000 0.000000 0.000000 0.000000 0.000000 10.000000 
R_front_hand 0.000000 0.000000 0.000000 0.000000 0.000000 0.000000 10.000000 
R_weapon_bone 0.000000 0.000000 0.000000 0.000000 0.000000 0.000000 10.000000 
R_front_hand01_01 0.000000 0.000000 0.000000 0.000000 0.000000 0.000000 10.000000 
R_front_hand02_01 0.000000 0.000000 0.000000 0.000000 0.000000 0.000000 10.000000 
R_front_hand03_01 0.000000 0.000000 0.000000 0.000000 0.000000 0.000000 10.000000 
R_front_hand01_02 0.000000 0.000000 0.000000 0.000000 0.000000 0.000000 10.000000 
R_front_hand02_02 0.000000 0.000000 0.000000 0.000000 0.000000 0.000000 10.000000 
R_front_hand03_02 0.000000 0.000000 0.000000 0.000000 0.000000 0.000000 10.000000 
null_rope01_connect 0.000000 0.000000 0.000000 0.000000 0.000000 0.000000 10.000000 
Rope1_Seg01 0.000000 0.000000 0.000000 0.000000 0.000000 0.000000 10.000000 
Rope1_Seg02 0.000000 0.000000 0.000000 0.000000 0.000000 0.000000 10.000000 
Rope1_Seg03 0.000000 0.000000 0.000000 0.000000 0.000000 0.000000 10.000000 
Rope1_Seg04 0.000000 0.000000 0.000000 0.000000 0.000000 0.000000 10.000000 
Rope1_Seg05 0.000000 0.000000 0.000000 0.000000 0.000000 0.000000 10.000000 
Rope1_Seg06 0.000000 0.000000 0.000000 0.000000 0.000000 0.000000 10.000000 
Rope1_Seg07 0.000000 0.000000 0.000000 0.000000 0.000000 0.000000 10.000000 
Rope1_Seg09 0.000000 0.000000 0.000000 0.000000 0.000000 0.000000 10.000000 
L_mid_hand01 0.000000 0.000000 0.000000 0.000000 0.000000 0.000000 10.000000 
L_mid_hand02 0.000000 0.000000 0.000000 0.000000 0.000000 0.000000 10.000000 
L_mid_hand03 0.000000 0.000000 0.000000 0.000000 0.000000 0.000000 10.000000 
null_rope02_connect 0.000000 0.000000 0.000000 0.000000 0.000000 0.000000 10.000000 
Rope2_Seg01 0.000000 0.000000 0.000000 0.000000 0.000000 0.000000 10.000000 
Rope2_Seg02 0.000000 0.000000 0.000000 0.000000 0.000000 0.000000 10.000000 
Rope2_Seg03 0.000000 0.000000 0.000000 0.000000 0.000000 0.000000 10.000000 
Rope2_Seg04 0.000000 0.000000 0.000000 0.000000 0.000000 0.000000 10.000000 
Rope2_Seg05 0.000000 0.000000 0.000000 0.000000 0.000000 0.000000 10.000000 
Rope2_Seg06 0.000000 0.000000 0.000000 0.000000 0.000000 0.000000 10.000000 
Rope2_Seg07 0.000000 0.000000 0.000000 0.000000 0.000000 0.000000 10.000000 
Rope2_Seg09 0.000000 0.000000 0.000000 0.000000 0.000000 0.000000 10.000000 
R_mid_hand01 0.000000 0.000000 0.000000 0.000000 0.000000 0.000000 10.000000 
R_mid_hand02 0.000000 0.000000 0.000000 0.000000 0.000000 0.000000 10.000000 
R_mid_hand03 0.000000 0.000000 0.000000 0.000000 0.000000 0.000000 10.000000 
spine02 0.000000 0.000000 0.000000 0.000000 0.000000 0.000000 10.000000 
spine03 0.000000 0.000000 0.000000 0.000000 0.000000 0.000000 10.000000 
pelvis 0.000000 0.000000 0.000000 0.000000 0.000000 0.000000 10.000000 
null_rope03_connect 0.000000 0.000000 0.000000 0.000000 0.000000 0.000000 10.000000 
null_rope04_connect 0.000000 0.000000 0.000000 0.000000 0.000000 0.000000 10.000000 
Rope3_Seg01 0.000000 0.000000 0.000000 0.000000 0.000000 0.000000 10.000000 
Rope3_Seg02 0.000000 0.000000 0.000000 0.000000 0.000000 0.000000 10.000000 
Rope3_Seg03 0.000000 0.000000 0.000000 0.000000 0.000000 0.000000 10.000000 
Rope3_Seg04 0.000000 0.000000 0.000000 0.000000 0.000000 0.000000 10.000000 
Rope3_Seg05 0.000000 0.000000 0.000000 0.000000 0.000000 0.000000 10.000000 
Rope3_Seg06 0.000000 0.000000 0.000000 0.000000 0.000000 0.000000 10.000000 
Rope3_Seg07 0.000000 0.000000 0.000000 0.000000 0.000000 0.000000 10.000000 
Rope3_Seg08 0.000000 0.000000 0.000000 0.000000 0.000000 0.000000 10.000000 
Rope3_Seg09 0.000000 0.000000 0.000000 0.000000 0.000000 0.000000 10.000000 
R_rear_hand01 0.000000 0.000000 0.000000 0.000000 0.000000 0.000000 10.000000 
R_rear_hand02 0.000000 0.000000 0.000000 0.000000 0.000000 0.000000 10.000000 
R_rear_hand03 0.000000 0.000000 0.000000 0.000000 0.000000 0.000000 10.000000 
Rope4_Seg01 0.000000 0.000000 0.000000 0.000000 0.000000 0.000000 10.000000 
Rope4_Seg02 0.000000 0.000000 0.000000 0.000000 0.000000 0.000000 10.000000 
Rope4_Seg03 0.000000 0.000000 0.000000 0.000000 0.000000 0.000000 10.000000 
Rope4_Seg04 0.000000 0.000000 0.000000 0.000000 0.000000 0.000000 10.000000 
Rope4_Seg05 0.000000 0.000000 0.000000 0.000000 0.000000 0.000000 10.000000 
Rope4_Seg06 0.000000 0.000000 0.000000 0.000000 0.000000 0.000000 10.000000 
Rope4_Seg07 0.000000 0.000000 0.000000 0.000000 0.000000 0.000000 10.000000 
Rope4_Seg08 0.000000 0.000000 0.000000 0.000000 0.000000 0.000000 10.000000 
Rope4_Seg09 0.000000 0.000000 0.000000 0.000000 0.000000 0.000000 10.000000 
L_rear_hand01 0.000000 0.000000 0.000000 0.000000 0.000000 0.000000 10.000000 
L_rear_hand02 0.000000 0.000000 0.000000 0.000000 0.000000 0.000000 10.000000 
L_rear_hand03 0.000000 0.000000 0.000000 0.000000 0.000000 0.000000 10.000000 
#Beginning of Data. Separated by tabs
#Fr	Tx	Ty	Tz	Rx	Ry	Rz	SF
[MASTER]
12 0.000000 0.000000 0.000000 0.001660 0.001660 0.001660 0.000000
13 0.000000 0.000000 0.000000 0.001660 0.001660 0.001660 0.000000
[root]
12 -16.502304 9.364140 1448.317383 -91.728897 -11.584496 -89.471619 1448.441650
13 -16.502304 9.364140 1448.317383 -91.728897 -11.584496 -89.471619 1448.441650
[chest]
12 -84.512650 -34.090519 0.000000 -2.144813 0.313244 176.732239 91.129311
13 -84.512650 -34.090519 0.000000 -2.144812 0.313244 176.732239 91.129311
[L_mid_tent01]
12 27.299511 22.177458 -249.918259 -28.266106 32.791584 -5.365355 252.381134
13 27.299511 22.177458 -249.918259 -28.266100 32.791580 -5.365355 252.381134
[R_mid_tent01]
12 23.228794 24.509907 226.238495 -156.204071 -32.814346 0.416457 228.744751
13 23.228794 24.509907 226.238495 -156.204071 -32.814335 0.416458 228.744751
[spine01]
12 -0.361383 -0.195265 0.000000 -0.000001 -0.000007 22.052340 0.410763
13 -0.361383 -0.195265 0.000000 -0.000001 -0.000007 22.052340 0.410763
[Bip01_Neck]
12 165.484543 71.581718 0.000119 175.896118 1.177290 24.871183 180.302734
13 165.484543 71.581718 0.000119 175.896118 1.177290 24.871180 180.302734
[L_humerus]
12 -13.983130 -135.272980 -120.471481 139.910034 88.317856 -130.290009 181.680161
13 -13.983130 -135.272980 -120.471481 139.910034 88.317856 -130.290009 181.680161
[R_humerus]
12 -13.983309 -135.273102 125.287651 133.576981 -87.684464 -45.901276 184.909012
13 -13.983309 -135.273102 125.287651 133.576981 -87.684464 -45.901276 184.909012
[weapon_bone]
12 235.964890 -300.705902 0.000000 0.000000 -89.951546 -128.212341 382.234833
13 235.964890 -300.705902 0.000000 0.000000 -89.951546 -128.212341 382.234833
[Bip01_Head]
12 193.865784 99.525146 7.890730 1.727521 4.534425 -43.429157 218.062973
13 193.865784 99.525146 7.890730 1.727521 4.534425 -43.429157 218.062973
[eye_left_bone]
12 -24.626970 125.451866 -64.772606 0.000000 -90.000000 -99.840431 143.318359
13 -24.626970 125.451866 -64.772606 0.000000 -90.000000 -99.840431 143.318359
[eye_right_bone]
12 -24.626970 125.451866 64.327362 0.000000 -89.965736 80.156380 143.117676
13 -24.626970 125.451866 64.327362 0.000000 -89.965736 80.156380 143.117676
[L_forearm]
12 322.776093 0.000000 -0.000119 0.000248 -0.002334 -102.125244 322.776093
13 322.776093 0.000000 -0.000119 0.000248 -0.002334 -102.125244 322.776093
[L_front_hand]
12 241.149185 -0.042021 -3.300071 -179.659958 -2.242151 -0.019832 241.171753
13 241.149185 -0.042021 -3.300071 -179.659958 -2.242151 -0.019832 241.171753
[L_weapon_bone]
12 156.183838 0.000000 0.000000 0.000014 0.000007 0.000001 156.183838
13 156.183838 0.000000 0.000000 0.000014 0.000007 0.000001 156.183838
[L_front_hand01_01]
12 86.095154 20.947098 -0.655860 -0.366594 -0.477154 75.385574 88.609184
13 86.095154 20.947098 -0.655860 -0.366594 -0.477154 75.385574 88.609184
[L_front_hand02_01]
12 86.935165 -11.437475 24.513514 154.399796 -59.883835 -61.369587 91.046425
13 86.935165 -11.437475 24.513514 154.399811 -59.883835 -61.369606 91.046425
[L_front_hand03_01]
12 86.637497 -14.123976 -20.424902 -153.913879 58.118130 -62.702892 90.126129
13 86.637497 -14.123976 -20.424902 -153.913849 58.118122 -62.702866 90.126129
[L_front_hand01_02]
12 71.020905 -0.000179 0.000030 0.000334 -0.002323 -106.379684 71.020905
13 71.020905 -0.000179 0.000030 0.000334 -0.002323 -106.379684 71.020905
[L_front_hand02_02]
12 71.020927 -0.000119 0.000060 0.000334 -0.002323 -106.379684 71.020927
13 71.020927 -0.000119 0.000060 0.000334 -0.002323 -106.379684 71.020927
[L_front_hand03_02]
12 71.020905 -0.000060 0.000060 0.000334 -0.002323 -106.379684 71.020905
13 71.020905 -0.000060 0.000060 0.000334 -0.002323 -106.379684 71.020905
[R_forearm]
12 322.776428 -0.000060 0.000030 0.208463 0.026596 -98.191154 322.776428
13 322.776428 -0.000060 0.000030 0.208463 0.026596 -98.191154 322.776428
[R_front_hand]
12 238.847015 -0.006795 2.210259 -0.270529 1.703932 2.322530 238.857239
13 238.847015 -0.006795 2.210259 -0.270529 1.703932 2.322530 238.857239
[R_weapon_bone]
12 155.664093 0.002503 -0.000030 0.003487 0.001180 -90.988930 155.664078
13 155.664093 0.002503 -0.000030 0.003487 0.001180 -90.988930 155.664078
[R_front_hand01_01]
12 87.624611 14.231146 22.918642 -154.633514 -59.950634 61.746063 91.683487
13 87.624611 14.231146 22.918642 -154.633484 -59.950607 61.746033 91.683487
[R_front_hand02_01]
12 89.356956 14.367283 -19.491137 154.602661 58.302849 63.744389 92.579636
13 89.356956 14.367283 -19.491137 154.602661 58.302856 63.744389 92.579636
[R_front_hand03_01]
12 87.286232 -22.307278 -0.143439 0.162155 -0.423168 -75.767921 90.091743
13 87.286232 -22.307278 -0.143439 0.162155 -0.423168 -75.767921 90.091743
[R_front_hand01_02]
12 71.020905 0.000060 0.000119 0.002323 -0.000334 106.381714 71.020905
13 71.020905 0.000060 0.000119 0.002323 -0.000334 106.381706 71.020905
[R_front_hand02_02]
12 71.020844 -0.000030 -0.000119 0.002323 -0.000334 106.381714 71.020836
13 71.020844 -0.000030 -0.000119 0.002323 -0.000334 106.381706 71.020836
[R_front_hand03_02]
12 71.020905 0.000000 0.000030 0.002323 -0.000334 106.381714 71.020905
13 71.020905 0.000000 0.000030 0.002323 -0.000334 106.381706 71.020905
[null_rope01_connect]
12 328.732483 0.000000 -0.000238 -119.541275 -47.109665 -141.366821 328.732483
13 328.732483 0.000000 -0.000238 -119.541275 -47.109665 -141.366821 328.732483
[Rope1_Seg01]
12 0.000000 0.000000 0.000000 28.981228 4.753512 -112.608475 0.000000
13 0.000000 0.000000 0.000000 38.093822 0.989342 -115.571854 0.000000
[Rope1_Seg02]
12 139.999863 -0.000179 0.000000 -9.712254 0.867259 5.737938 139.999863
13 139.999863 -0.000179 0.000000 -9.195089 1.284369 5.691459 139.999863
[Rope1_Seg03]
12 139.999924 0.000060 -0.000060 -8.961521 0.054853 7.836669 139.999924
13 139.999924 0.000060 -0.000060 -8.564847 0.333189 7.933276 139.999924
[Rope1_Seg04]
12 139.999924 -0.000060 -0.000119 -10.866579 -0.935048 15.197834 139.999924
13 139.999924 -0.000060 -0.000119 -8.717515 -2.561780 15.057892 139.999924
[Rope1_Seg05]
12 139.999832 0.000119 -0.000060 5.319062 -2.726440 -4.310730 139.999832
13 139.999832 0.000119 -0.000060 -1.739027 3.420501 -1.287406 139.999832
[Rope1_Seg06]
12 139.999954 0.000119 -0.000060 6.807583 -1.281413 -6.960823 139.999954
13 139.999954 0.000119 -0.000060 0.387440 3.352938 -4.411457 139.999954
[Rope1_Seg07]
12 139.999985 0.000060 0.000000 2.180654 -0.893214 -1.588448 139.999985
13 139.999985 0.000060 0.000000 -0.281989 0.983974 -0.777268 139.999985
[Rope1_Seg09]
12 121.602913 0.000119 -0.000089 -89.793175 -1.359789 0.847147 121.602913
13 121.602913 0.000119 -0.000089 -89.793175 -1.359789 0.847147 121.602913
[L_mid_hand01]
12 103.859421 1.038730 8.195221 106.855484 -31.239275 -9.461397 104.187431
13 103.859421 1.038730 8.195221 106.855484 -31.239275 -9.461397 104.187431
[L_mid_hand02]
12 105.572853 -4.139662 -10.864139 -142.331345 25.752670 -28.774628 106.211075
13 105.572853 -4.139662 -10.864139 -142.331345 25.752670 -28.774628 106.211075
[L_mid_hand03]
12 104.641464 17.579376 -3.913581 -16.122810 9.734291 34.223598 106.179977
13 104.641464 17.579376 -3.913581 -16.122810 9.734291 34.223598 106.179977
[null_rope02_connect]
12 328.732849 0.000179 -0.000119 -116.029831 50.874489 -29.531239 328.732849
13 328.732849 0.000179 -0.000119 -116.029846 50.874496 -29.531256 328.732849
[Rope2_Seg01]
12 -0.000038 0.000153 0.000000 10.479201 7.940337 -39.768795 0.000157
13 -0.000038 0.000153 0.000000 14.024442 4.104535 -39.793800 0.000157
[Rope2_Seg02]
12 139.999741 -0.000060 -0.000119 42.639687 -7.145837 -10.442815 139.999756
13 139.999741 -0.000060 -0.000119 33.612720 -9.041211 -10.018422 139.999756
[Rope2_Seg03]
12 140.000107 0.000030 0.000000 12.633210 -14.889261 -1.314496 140.000107
13 140.000107 0.000030 0.000000 9.774168 -15.611632 -0.484734 140.000107
[Rope2_Seg04]
12 139.999802 0.000000 -0.000060 4.380215 -15.400612 2.106298 139.999802
13 139.999802 0.000000 -0.000060 4.624816 -14.782799 0.933720 139.999802
[Rope2_Seg05]
12 139.999985 -0.000060 0.000119 13.060506 -10.888968 -11.773807 139.999985
13 139.999985 -0.000060 0.000119 15.648527 -8.807148 -17.391047 139.999985
[Rope2_Seg06]
12 139.999893 -0.000030 -0.000119 6.401996 -6.955210 -6.922007 139.999893
13 139.999893 -0.000030 -0.000119 8.365249 -6.984747 -10.099384 139.999893
[Rope2_Seg07]
12 139.999893 0.000060 -0.000060 2.096084 -4.086937 -2.097655 139.999893
13 139.999893 0.000060 -0.000060 2.785790 -4.210744 -3.269486 139.999893
[Rope2_Seg09]
12 121.338966 0.000089 -0.000060 33.793236 -1.359788 -0.847141 121.338966
13 121.338966 0.000089 -0.000060 33.793236 -1.359788 -0.847141 121.338966
[R_mid_hand01]
12 104.680779 11.144459 -10.335981 -41.523792 25.424656 28.595957 105.778534
13 104.680779 11.144459 -10.335981 -41.523792 25.424656 28.595957 105.778534
[R_mid_hand02]
12 104.070427 2.443552 8.231699 72.847389 -32.746803 10.013901 104.424065
13 104.070427 2.443552 8.231699 72.847389 -32.746803 10.013901 104.424065
[R_mid_hand03]
12 106.028137 -11.221827 -5.996406 -167.901306 10.259192 -37.009720 106.788818
13 106.028137 -11.221827 -5.996406 -167.901306 10.259192 -37.009720 106.788818
[spine02]
12 129.756927 0.001550 0.000119 0.360061 -4.044797 -12.915058 129.756927
13 129.756927 0.001550 0.000119 0.360061 -4.044797 -12.915058 129.756927
[spine03]
12 78.613846 0.087372 -4.898873 1.896495 3.831288 16.473045 78.766380
13 78.613846 0.087372 -4.898873 1.896495 3.831288 16.473045 78.766380
[pelvis]
12 169.435242 0.051022 0.000000 -0.060465 -0.180225 14.087930 169.435257
13 169.435242 0.051022 0.000000 -0.060465 -0.180225 14.087931 169.435257
[null_rope03_connect]
12 -1.257226 -2.466202 137.391083 156.329987 -89.381348 -94.430771 137.418976
13 -1.257226 -2.466202 137.391083 156.329987 -89.381348 -94.430771 137.418976
[null_rope04_connect]
12 -1.259640 -2.480268 -137.844437 156.329987 -89.381348 -94.430771 137.872513
13 -1.259640 -2.480268 -137.844437 156.329987 -89.381348 -94.430771 137.872513
[Rope3_Seg01]
12 0.000010 0.000038 -0.000114 -141.666672 37.727768 -91.124977 0.000121
13 0.000010 0.000038 -0.000114 -140.991440 31.427511 -94.432411 0.000121
[Rope3_Seg02]
12 139.999924 -0.000119 0.000060 2.099879 2.333312 -10.627993 139.999924
13 139.999924 -0.000119 0.000060 1.902000 -1.029346 -12.162189 139.999924
[Rope3_Seg03]
12 139.999924 -0.000119 0.000119 1.000628 2.138072 -13.117266 139.999924
13 139.999924 -0.000119 0.000119 0.825260 -2.163212 -13.231090 139.999924
[Rope3_Seg04]
12 139.999924 0.000119 0.000000 -1.206423 -1.845203 -23.466211 139.999924
13 139.999924 0.000119 0.000000 0.250179 -6.623526 -18.185732 139.999924
[Rope3_Seg05]
12 139.999924 -0.000238 0.000060 -2.200029 4.375425 -4.850815 139.999924
13 139.999924 -0.000238 0.000060 -1.229966 3.702403 -1.359390 139.999924
[Rope3_Seg06]
12 139.999893 -0.000119 -0.000060 2.459671 11.532906 19.169798 139.999893
13 139.999893 -0.000119 -0.000060 1.787123 14.283441 15.283602 139.999893
[Rope3_Seg07]
12 139.999771 0.000060 -0.000119 1.495459 8.722530 13.884377 139.999771
13 139.999771 0.000060 -0.000119 2.146648 11.099693 11.450201 139.999771
[Rope3_Seg08]
12 139.999985 -0.000060 0.000000 0.942291 4.270714 5.423607 139.999985
13 139.999985 -0.000060 0.000000 1.512846 5.549413 4.795506 139.999985
[Rope3_Seg09]
12 90.185997 -0.000179 -0.000060 89.793228 -1.359877 -0.847183 90.185997
13 90.185997 -0.000179 -0.000060 89.793228 -1.359877 -0.847183 90.185997
[R_rear_hand01]
12 103.366196 -6.073594 -10.757982 -161.551193 16.666374 -30.088671 104.101845
13 103.366196 -6.073594 -10.757982 -161.551193 16.666374 -30.088671 104.101845
[R_rear_hand02]
12 100.509819 12.039542 -7.992327 -34.280552 19.289745 28.875523 101.543350
13 100.509819 12.039542 -7.992327 -34.280552 19.289745 28.875523 101.543350
[R_rear_hand03]
12 101.539970 5.215704 5.435467 83.366440 -30.933914 7.284830 101.819031
13 101.539970 5.215704 5.435467 83.366440 -30.933914 7.284830 101.819031
[Rope4_Seg01]
12 0.000010 0.000038 -0.000114 55.941948 27.236420 -84.007225 0.000121
13 0.000010 0.000038 -0.000114 52.617077 24.094189 -89.631332 0.000121
[Rope4_Seg02]
12 139.999985 0.000060 0.000119 -0.816048 -1.853747 1.315808 139.999985
13 139.999985 0.000060 0.000119 -1.022124 -0.498192 3.315394 139.999985
[Rope4_Seg03]
12 139.999924 0.000000 -0.000238 -0.784953 -1.456698 1.564794 139.999924
13 139.999924 0.000000 -0.000238 -1.327563 0.056798 4.329802 139.999924
[Rope4_Seg04]
12 139.999985 0.000000 0.000119 -1.224770 0.890005 3.934978 139.999985
13 139.999985 0.000000 0.000119 -2.380187 1.287294 7.237123 139.999985
[Rope4_Seg05]
12 139.999802 -0.000060 -0.000119 0.177679 -5.289431 -2.630787 139.999802
13 139.999802 -0.000060 -0.000119 1.754359 -4.745197 -6.515039 139.999802
[Rope4_Seg06]
12 139.999924 0.000000 0.000060 0.999404 -7.270487 -6.090919 139.999924
13 139.999924 0.000000 0.000060 1.788261 -4.924610 -8.628359 139.999924
[Rope4_Seg07]
12 139.999802 0.000000 0.000000 0.320842 -3.637339 -2.725345 139.999802
13 139.999802 0.000000 0.000000 0.446289 -2.168264 -3.098793 139.999802
[Rope4_Seg08]
12 139.999924 0.000000 0.000119 -1.403401 -2.009038 -1.403401 139.999924
13 139.999924 0.000000 0.000119 -1.333667 -1.285526 -1.788865 139.999924
[Rope4_Seg09]
12 90.185791 0.000060 0.000060 -135.617828 2.228885 0.850567 90.185791
13 90.185791 0.000060 0.000060 -135.617828 2.228885 0.850567 90.185791
[L_rear_hand01]
12 101.696655 -8.392275 -7.654577 -34.454281 -18.946800 151.655121 102.329041
13 101.696655 -8.392275 -7.654577 -34.454281 -18.946800 151.655121 102.329041
[L_rear_hand02]
12 102.726799 -1.568258 5.773216 83.407906 30.330435 172.796509 102.900848
13 102.726799 -1.568258 5.773216 83.407906 30.330435 172.796509 102.900848
[L_rear_hand03]
12 104.552910 9.721220 -10.420293 -161.379868 -16.473232 -150.512238 105.519653
13 104.552910 9.721220 -10.420293 -161.379868 -16.473232 -150.512238 105.519653
